<?xml version="1.0" encoding="utf-8"?>
<!-- Generator: Adobe Illustrator 19.0.0, SVG Export Plug-In . SVG Version: 6.00 Build 0)  -->
<svg version="1.1" id="Layer_2" xmlns="http://www.w3.org/2000/svg" xmlns:xlink="http://www.w3.org/1999/xlink" x="0px" y="0px"
width="80px" height="78px"
	 viewBox="-265 358 80 78" style="enable-background:new -265 358 80 78;" xml:space="preserve">
<style type="text/css">
	.SK1{fill:#846FDE;}
	.SK2{fill:#EB0755;}
</style>
<path class="SK1" d="M-260.3,426.8h6.8c0,0,6.6,0.3,9.4-5.5c0,0,2.9-9.6,4.3-11.9c0,0,2.1-3.2,4.7-5.5c0,0,2.1,7.6,2.5,9.7
	c0,0,2.6,11.7,7.6,12.4l15.4,0.1c0,0,4.2,0.2,8.1-5.4c0,0,12-17.9,13.8-22.8c0,0-11.9-0.5-14.5,0.6c0,0-4.7,1-6.6,8.1l-4.6,14.1
	c0,0-1.1-2.8-2.6-9.7c0,0-2.3-13.2-9.6-12.7H-240c0,0-4.3-0.7-10.5,7.3C-250.6,405.7-257.8,416.1-260.3,426.8z"/>
<g id="Layer_2_1_">
</g>
<g>
	<path class="SK2" d="M-240.7,388.2c0-1.5,1.1-2.9,2.7-2.9c1.4,0,2.3,1,2.3,2.4c0,1.7-1.2,2.8-2.8,2.8
		C-239.8,390.5-240.7,389.6-240.7,388.2z"/>
	<path class="SK2" d="M-234.9,390.3l3.6-18.9h4.7l2.5,7.2c0.8,2.4,1.3,4.4,1.7,6.5h0.1c0.1-1.9,0.3-4,0.9-6.8l1.3-6.9h3.8l-3.6,18.9
		h-4.2l-2.6-7.6c-0.8-2.6-1.3-4.3-1.9-6.6l-0.1,0c-0.2,1.8-0.7,4.5-1.2,7.5l-1.2,6.6H-234.9z"/>
	<path class="SK2" d="M-205.4,382.2h-6.7l-0.9,4.6h7.6l-0.6,3.5h-11.6l3.6-18.9h11.2l-0.7,3.5h-7.1l-0.8,4h6.7L-205.4,382.2z"/>
	<path class="SK2" d="M-196.8,374.9h-5l0.7-3.5h14.1l-0.7,3.5h-5.1l-2.9,15.4h-4L-196.8,374.9z"/>
</g>
</svg>
