<?xml version="1.0" encoding="utf-8"?>
<!-- Generator: Adobe Illustrator 19.0.0, SVG Export Plug-In . SVG Version: 6.00 Build 0)  -->
<svg version="1.1" id="Layer_1" xmlns="http://www.w3.org/2000/svg" xmlns:xlink="http://www.w3.org/1999/xlink" x="0px" y="0px"
	 viewBox="-2783 2784.6 432.4 432.4" style="enable-background:new -2783 2784.6 432.4 432.4;" xml:space="preserve">
<g id="Layer_2">
</g>
<g>
	<path style="fill:none;" d="M-2656.2,3171.8c-7-9.4-12.7-21-14-34.4c-2.5-25.7,11.6-51.6,42-77l15.3-12.8l-4.8,19.3
		c-1.1,4.6-2.6,18.1,3.7,25.2c4,4.4,11,6.1,20.8,5c2-0.9,9.6-4.5,11.7-11.7c2.4-8.1-3.1-17.9-8.3-24.9c-3.7-3.3-22.3-20.9-23.4-45.2
		c-0.7-15.8,6.2-30.8,20.3-44.6l15.1-9.8c0,0-4.9,17.6-4.8,17.4c0,0-2,4.9,4.5,14.6c6.5,9.9,22.7,26.1,62.7,47.6l0.2,0.1
		c0.8,0.5,20.4,12.1,36.1,32c21.4,27.1,25.3,56.4,11.2,84.6c-0.6,1.5-2.6,6-7.4,12"/>
	<path style="fill:none;" d="M-2475.2,3169.2C-2475.2,3169.2-2475.2,3169.2-2475.2,3169.2c16.5-9.5,34.4-23.2,47.7-42.3l0.2-0.3
		c0.1-0.1,11.8-15.5,16.1-39.2c5.6-31.4-3.9-62.1-28.4-91.3c-1.8-1.8-17.4-16.8-38-29.4c-0.4,2.7-1.4,5.6-3.1,8.4
		c-4.7,7.7-13.7,12.3-26.7,13.6c-0.7,0.1-17.3,1.7-28.7-10.4c-9-9.6-11.9-24.6-8.4-44.6l0.1-0.7l0.3-0.7c0.1-0.2,8.2-20.5,8.3-44.8
		c0.1-24.5-7.6-44.1-22.9-58.6c0.8,15.5-5.8,38.8-37.3,68.4l-0.3,0.3c-0.7,0.6-74.1,61.9-99.3,108.9l-0.1,0.2
		c-0.3,0.5-31.8,55.8-12.4,107.7c8.7,23.2,26.1,42.4,52.1,57.5c0-0.1-0.1-0.1-0.1-0.2"/>
	<path style="fill:#846FDE;"  class="hov_color"  d="M-2467.8,3157.2c14.1-28.2,10.2-57.5-11.2-84.6c-15.7-19.9-35.2-31.5-36.1-32l-0.2-0.1
		c-40-21.4-56.2-37.7-62.7-47.6c-6.4-9.7-4.5-14.6-4.5-14.6c-0.1,0.2,4.8-17.4,4.8-17.4l-15.1,9.8c-14.1,13.8-20.9,28.8-20.3,44.6
		c1,24.3,19.6,41.9,23.4,45.2c5.2,6.9,10.7,16.7,8.3,24.9c-2.1,7.2-9.7,10.9-11.7,11.7c-9.8,1.2-16.8-0.5-20.8-5
		c-6.3-7-4.8-20.6-3.7-25.2l4.8-19.3l-15.3,12.8c-30.4,25.4-44.5,51.3-42,77c1.3,13.4,7,25,14,34.4c4,3.1,12.6,8,29.1,10.8
		c-11.2-8.6-28.1-25-30.1-46.5c-1.7-17.8,6.9-36.3,25.7-55.1c0.6,6.6,2.6,14,7.7,19.7c7.1,8,18.2,11,33,9.1l0.7-0.1l0.6-0.2
		c0.6-0.2,16-5.7,20.4-20.4c3.3-10.9-0.3-23.4-10.8-37.1l-0.5-0.6l-0.6-0.5c-0.2-0.2-18.5-15.7-19.3-36.4c-0.3-7.8,2-15.5,6.7-23
		c7.5,18.4,31.6,38.6,71.8,60.2c1.4,0.9,18.9,11.7,32.6,29.1c18.2,23.2,21.4,47,9.4,70.8l-0.2,0.3l-0.1,0.4
		c-0.1,0.2-6.1,15.5-31.3,30.4c7.1-1,24.7-4.4,35.9-13.5C-2470.4,3163.1-2468.4,3158.6-2467.8,3157.2z"/>
	<path style="fill:#EB0755;" d="M-2429.8,2987.5l-0.4-0.4c-0.9-0.9-23.1-22.9-51.8-37.8l-15.3-7.9l6.3,16.1c0,0.1,2.2,6.2-0.7,10.9
		c-3.1,5.1-10.9,6.8-16.9,7.5c-0.1,0-11.1,1-18-6.4c-5.9-6.3-7.6-17.6-5.1-32.7c1.5-4,8.8-24.1,8.9-48.6
		c0.2-36.3-15.3-64.6-44.8-81.8l-32.3-18.8l24,28.5c0.8,1,19.7,26.1-28.8,71.8c-4.8,4-76.2,64-102.3,112.6
		c-2.1,3.7-34.5,61.5-13.3,118.6c13.8,37,46.8,64.6,98,82.3l5.3-11.8c-0.1-0.1-4.3-2.4-10-6.8c-16.6-2.8-25.2-7.7-29.1-10.8
		c0,0.1,0.1,0.1,0.1,0.2c-26-15-43.5-34.3-52.1-57.5c-19.4-51.9,12-107.2,12.4-107.7l0.1-0.2c25.2-47,98.6-108.3,99.3-108.9l0.3-0.3
		c31.5-29.6,38.1-52.9,37.3-68.4c15.3,14.5,23,34.2,22.9,58.6c-0.1,24.4-8.2,44.7-8.3,44.8l-0.3,0.7l-0.1,0.7
		c-3.4,20-0.6,35,8.4,44.6c11.4,12.1,28,10.5,28.7,10.4c13-1.3,22-5.9,26.7-13.6c1.7-2.8,2.6-5.7,3.1-8.4
		c20.6,12.6,36.2,27.6,38,29.4c24.5,29.1,34,59.9,28.4,91.3c-4.2,23.7-16,39.1-16.1,39.2l-0.2,0.3c-13.4,19.1-31.2,32.8-47.8,42.4
		c0,0,0,0,0.1-0.1c-11.3,9.1-28.8,12.5-35.9,13.5c-3.7,2.2-7.8,4.4-12.3,6.5l-54.9,25.5l59.1-13.3c2.7-0.6,66.1-15.4,102.4-67
		c1.4-1.9,13.7-18.5,18.4-44.1C-2394,3065.7-2395.7,3027.9-2429.8,2987.5z"/>
</g>
<path style="fill:#EB0755;" d="M-2622.3,3201.2c0,0,13.8-1.2,5.3-11.8l-5.3,4V3201.2z"/>
</svg>
