<?xml version="1.0" encoding="utf-8"?>
<!-- Generator: Adobe Illustrator 19.0.0, SVG Export Plug-In . SVG Version: 6.00 Build 0)  -->
<svg version="1.1" xmlns="http://www.w3.org/2000/svg" xmlns:xlink="http://www.w3.org/1999/xlink" x="0px" y="0px"
	 viewBox="-2783 2784.6 432.4 432.4" style="enable-background:new -2783 2784.6 432.4 432.4;" xml:space="preserve">
<g id="Layer_1">
	<g id="Layer_2">
	</g>
	<polygon  style="fill:none;stroke:#DC2026;stroke-width:13;stroke-miterlimit:10;" points="-5348.2,5579.8 -5541.7,5647.9 -5511.1,5901.3 -5348,5991 -5184.1,5900.1 -5153.6,5646.7 	"/>
	<path style="fill:#846FDE;"  class="hov_color" d="M-5456,5863.2l106.2-237l7.5,15.7l-93.5,208l21.9-0.4l19.6-49.1h46.1v13h-37.3l-19.6,48.9L-5456,5863.2z
		 M-5348.2,5784.4h-38.6l32.9-78l12,5.1l-25.3,59.9h19V5784.4L-5348.2,5784.4z"/>
	<path style="fill:#846FDE;"  class="hov_color" d="M-5235.7,5863.9l-49.5-0.9l-21.4-49.6h-48.1l0.1-41.9h29.4l-29.2-61l4.6-84.2L-5235.7,5863.9z M-5276.6,5850.1
		l20.2,0.4l-85.3-181.9l0.1,38.8l36.8,77h-37v15.9h43.6L-5276.6,5850.1z"/>
</g>
<g id="Layer_2_1_">
	<polygon style="fill:#EB0755;"  points="-2570,3208.9 -2707.7,3163.6 -2730.7,2832.5 -2569.8,2792.7 -2407.9,2833.8 -2414.7,2948 
		-2438.9,2946.6 -2433.3,2852.3 -2569.9,2817.6 -2705.1,2851.1 -2684.7,3145.7 -2569.6,3183.5 -2456.7,3149.7 -2442,2994 
		-2417.9,2996.3 -2434.1,3168.2 	"/>
	<rect x="-2581.9" y="2805.2" style="fill:#EB0755;"  width="24.2" height="56.5"/>
	<rect x="-2581.9" y="3094.4" style="fill:#EB0755;"  width="24.2" height="101.8"/>
	<g>
		<path style="fill:#846FDE;stroke:#846FDE;stroke-width:3;stroke-miterlimit:10;" d="M-2614.1,3001.5c1.1,0,2,0.4,2.7,1.1c0.7,0.7,1.1,1.6,1.1,2.7v118.9c-0.1,1.1-0.5,2-1.3,2.7
			c-0.7,0.7-1.6,1.1-2.5,1.1c-1.2,0-2.1-0.4-2.8-1.1c-0.7-0.7-1-1.6-1-2.7v-118.9c0-1.1,0.4-2,1.1-2.7
			C-2616.1,3001.9-2615.2,3001.5-2614.1,3001.5z M-2615,3059.3h87.6l-0.4,7.2h-88.3L-2615,3059.3z M-2527.8,3001.5
			c1.1,0,2,0.4,2.7,1.1c0.7,0.7,1.1,1.6,1.1,2.7v118.9c-0.1,1.1-0.5,2-1.3,2.7c-0.7,0.7-1.6,1.1-2.5,1.1c-1.2,0-2.1-0.4-2.8-1.1
			c-0.7-0.7-1-1.6-1-2.7v-118.9c0-1.1,0.4-2,1.1-2.7C-2529.8,3001.9-2528.9,3001.5-2527.8,3001.5z"/>
	</g>
	<g>
		<path style="fill:#846FDE;"  class="hov_color" d="M-2654.9,2950.2v8.9h19.1v-8.9h6.5v23.7h-6.5v-9.5h-19.1v9.5h-6.5v-23.7H-2654.9z"/>
		<path style="fill:#846FDE;"  class="hov_color" d="M-2617.7,2950.2l10,10l10-10h9.5l-16.3,15.1v8.6h-6.5v-8.6l-16.3-15.1H-2617.7z"/>
		<path style="fill:#846FDE;"  class="hov_color" d="M-2562.6,2950.2c2,0,3.7,0.6,5.1,1.9c1.4,1.3,2.1,2.8,2.1,4.6c0,0.9-0.2,1.8-0.6,2.6c-0.4,0.8-1,1.5-1.7,2.1
			c1.2,0.6,2.1,1.4,2.8,2.4c0.7,1,1,2.2,1,3.4c0,1.8-0.7,3.4-2.1,4.7c-1.4,1.3-3.1,1.9-5.1,1.9h-24.7v-23.7H-2562.6z
			 M-2579.6,2959.9h14.8c0.7,0,1.3-0.2,1.8-0.7c0.5-0.4,0.7-1,0.7-1.6c0-0.7-0.2-1.2-0.7-1.6c-0.5-0.4-1.1-0.7-1.8-0.7h-14.8V2959.9
			z M-2579.6,2968.9h16.5c0.7,0,1.3-0.2,1.8-0.7c0.5-0.4,0.8-1,0.7-1.6c0-0.6-0.2-1.2-0.7-1.6c-0.5-0.4-1.1-0.7-1.8-0.7h-16.5
			V2968.9z"/>
		<path style="fill:#846FDE;"  class="hov_color" d="M-2527.7,2950.2c2.3,0,4.3,0.7,5.9,2.2c1.6,1.5,2.4,3.3,2.4,5.3c0,1.9-0.7,3.6-2.1,5
			c-1.4,1.4-3.2,2.2-5.3,2.4l7.7,8.7h-7.5l-7.1-8.6h-10.8v8.6h-6.5v-23.7H-2527.7z M-2544.5,2960.1l16.2,0c0.8,0,1.4-0.2,1.8-0.7
			c0.5-0.4,0.7-1,0.7-1.7c0-0.7-0.2-1.2-0.7-1.7c-0.5-0.5-1.1-0.7-1.8-0.6h-16.2V2960.1z"/>
		<path style="fill:#846FDE;"  class="hov_color" d="M-2509.5,2950.2v23.7h-6.5v-23.7H-2509.5z"/>
		<path style="fill:#846FDE;"  class="hov_color" d="M-2481.2,2950.2c1.4,0,2.7,0.3,4,0.9c1.3,0.6,2.3,1.5,3,2.5c0.8,1.1,1.2,2.2,1.1,3.5v9.8
			c0,1.2-0.4,2.4-1.2,3.5c-0.8,1.1-1.8,1.9-3,2.5c-1.2,0.6-2.5,0.9-4,0.9h-25.1v-23.7H-2481.2z M-2499.9,2968.6h17.3
			c0.9,0,1.6-0.3,2.2-0.8c0.6-0.6,0.9-1.2,0.9-2v-7.6c0-0.8-0.3-1.5-0.9-2c-0.6-0.6-1.3-0.8-2.2-0.8h-17.3V2968.6z"/>
	</g>
</g>
</svg>
