<?xml version="1.0" encoding="utf-8"?>
<!-- Generator: Adobe Illustrator 19.0.0, SVG Export Plug-In . SVG Version: 6.00 Build 0)  -->
<svg version="1.1" id="Layer_1" xmlns="http://www.w3.org/2000/svg" xmlns:xlink="http://www.w3.org/1999/xlink" x="0px" y="0px"
	 viewBox="-2783 2784.6 432.4 432.4" style="enable-background:new -2783 2784.6 432.4 432.4;" xml:space="preserve">

<g id="Layer_2">
</g>
<path style="fill:#EB0755;" d="M-2496.8,3206.3l-3.3-10.4c6.4-2.1,12.8-4.5,19-7.2c37.5-16.5,68.9-43.7,90.6-78.5c1.1-1.8,2.2-3.6,3.2-5.4
	l-34.1-227.7l-32.7-0.8l-32.6-33.6l7.8-7.6l29.5,30.4l37.4,0.9l36,240.5l-0.9,1.6c-1.3,2.3-2.8,4.8-4.4,7.4
	c-22.9,36.7-55.9,65.3-95.5,82.7C-2483.4,3201.6-2490.1,3204.1-2496.8,3206.3z"/>
<path  style="fill:#EB0755;" d="M-2521.2,3212.6l-155.9-29l-0.9-0.6c-21.8-13.9-40.7-31.5-56.3-52.3l-1.3-1.8l28.2-219.8l50.5-16.4
	c11-48.2,39.7-98.1,80.3-103.4c2.3-0.3,4.6-0.4,6.8-0.4c0.8,0,1.5,0,2.2,0.1l0.2,0c9.8,0.6,18,4.7,24.7,12.4
	c19.5-1.6,35.2,11.6,46.9,39.1l17.3-5.6l-14.7,370.2l-3.6,1.2c-7.6,2.5-15.5,4.5-23.3,6.1L-2521.2,3212.6z M-2673,3173.3l151.7,28.2
	c5.9-1.2,11.7-2.7,17.5-4.5l13.8-347l-12.2,3.9l-1.9-4.8c-10.5-27.3-23.6-39.3-40.1-36.7l-3.2,0.5l-2-2.6c-5-6.6-11-10-18.5-10.5
	l-0.2,0c-0.5,0-1.1,0-1.7,0c-1.8,0-3.6,0.1-5.4,0.4c-30.9,4-60.4,44.3-71.7,98l-0.7,3.1l-49.9,16.2l-26.7,208.5
	C-2710,3144.7-2692.7,3160.6-2673,3173.3z"/>
<path style="fill:#846FDE;"  class="hov_color"  d="M-2620.5,3155c-3.2,0-6.5-0.2-9.8-0.6c-19.7-2.5-36.3-9.7-50.6-21.9c-3.2-2.8-7.2-7.3-4.3-15.3
	c2.3-6.3,4.2-12.9,6-19.3c0.8-2.7,1.5-5.3,2.3-8c0-0.1,0.1-0.2,0.1-0.3c0.3-1.2,0.9-3.6,3.3-5.4l3.2-2.3l3.8,2.8
	c7.1,5.1,13.7,9.9,21.4,13c3.6,1.5,6.9,2.4,10.1,2.9c6.2,1,9.9-0.1,12.6-3.8c2.9-4,3-8.5,0.2-14.6c-1.7-3.8-5-6.9-8.2-9.7
	c-4.4-3.8-9.1-7.9-14.7-12.6c-16.7-14.1-23.5-33.1-20.2-56.5c5.3-37.6,33.3-64.9,71.5-69.5c18.5-2.3,33.6-1.1,47.4,3.5
	c1.9,0.6,4.6,1.8,6,4.7c1.4,2.8,0.7,5.6,0,7.8c-4.6,13.2-9.1,26.6-13.4,39.9c-0.5,1.4-1.4,4.3-4.4,5.7c-3,1.4-6,0.2-7.2-0.3
	c-12.3-5-22.6-6.6-32.3-5c-7.9,1.3-11.9,4.4-13.5,10.3c-1.1,4,0.1,7.4,3.7,11c4.4,4.3,9.2,7.9,14.4,11.8c1.9,1.4,3.8,2.9,5.7,4.3
	c7.4,5.7,16.7,13.7,23,24.5c9.6,16.4,11.4,34.8,5.3,56.2C-2567.4,3137.4-2591,3155-2620.5,3155z M-2667.6,3097
	c-0.4,1.3-0.7,2.5-1.1,3.8c-1.9,6.6-3.9,13.4-6.2,20c-0.6,1.7-0.7,1.8,1.2,3.4c12.6,10.8,27.3,17.2,44.9,19.4
	c28.9,3.6,51.6-11.1,59.4-38.4c5.2-18.4,3.8-34-4.2-47.7c-5.4-9.2-13.3-15.9-20.3-21.4c-1.8-1.4-3.7-2.8-5.6-4.2
	c-5.2-3.9-10.7-7.9-15.5-12.7c-8-7.9-8-16-6.6-21.5c2.7-10.1,10.2-16.3,22.2-18.3c11.2-1.9,22.8-0.4,36.1,4.8
	c4-12.3,8.2-24.7,12.4-36.9c-11.9-3.8-25.1-4.6-41.4-2.6c-33.1,4-57.4,27.7-62,60.2c-2.8,19.7,2.6,35,16.4,46.6
	c5.7,4.8,10.5,8.9,14.9,12.8c4.1,3.6,8.3,7.7,10.9,13.4c4.4,9.7,4,18.2-1.3,25.5c-5.1,7-12.9,9.8-23.1,8.1c-4-0.7-8.1-1.8-12.5-3.6
	C-2655.9,3104.9-2661.9,3101-2667.6,3097z"/>
</svg>
